<svg xmlns="http://www.w3.org/2000/svg" xmlns:xlink="http://www.w3.org/1999/xlink" width="2000" zoomAndPan="magnify" viewBox="0 0 1500 1499.999933" height="2000" preserveAspectRatio="xMidYMid meet" version="1.0"><defs><g/><clipPath id="517acf15e8"><path d="M 471 409.984375 L 638 409.984375 L 638 595.234375 L 471 595.234375 Z M 471 409.984375 " clip-rule="nonzero"/></clipPath><clipPath id="3d4de0a05d"><path d="M 629 409.984375 L 775 409.984375 L 775 595.234375 L 629 595.234375 Z M 629 409.984375 " clip-rule="nonzero"/></clipPath><clipPath id="9784992be0"><path d="M 766 409.984375 L 932 409.984375 L 932 595.234375 L 766 595.234375 Z M 766 409.984375 " clip-rule="nonzero"/></clipPath><clipPath id="31a0f19284"><path d="M 902 409.984375 L 1068 409.984375 L 1068 595.234375 L 902 595.234375 Z M 902 409.984375 " clip-rule="nonzero"/></clipPath><clipPath id="8c1e2d9587"><rect x="0" width="715" y="0" height="74"/></clipPath></defs><g clip-path="url(#517acf15e8)"><path fill="#0b1c2c" d="M 629.347656 559.0625 C 613.523438 577.449219 590.070312 589.113281 563.925781 589.113281 C 516.265625 589.113281 477.488281 550.335938 477.488281 502.675781 C 477.488281 455.015625 516.265625 416.238281 563.925781 416.238281 C 590.070312 416.238281 613.523438 427.902344 629.347656 446.289062 C 630.789062 447.917969 632.101562 449.574219 633.382812 451.292969 C 634.664062 449.574219 635.980469 447.917969 637.417969 446.289062 C 636.167969 444.632812 634.820312 443.007812 633.382812 441.414062 C 616.433594 422.148438 591.570312 409.984375 563.925781 409.984375 C 512.824219 409.984375 471.230469 451.574219 471.230469 502.675781 C 471.230469 553.777344 512.824219 595.371094 563.925781 595.371094 C 591.570312 595.371094 616.433594 583.203125 633.382812 563.941406 C 634.820312 562.34375 636.167969 560.71875 637.417969 559.0625 C 635.980469 557.433594 634.664062 555.777344 633.382812 554.058594 C 632.101562 555.777344 630.789062 557.433594 629.347656 559.0625 Z M 629.347656 559.0625 " fill-opacity="1" fill-rule="nonzero"/></g><g clip-path="url(#3d4de0a05d)"><path fill="#0b1c2c" d="M 770.765625 556.027344 C 769.484375 557.714844 768.105469 559.34375 766.667969 560.90625 C 750.875 578.230469 728.109375 589.113281 702.839844 589.113281 C 676.695312 589.113281 653.242188 577.449219 637.417969 559.0625 C 635.980469 557.433594 634.664062 555.777344 633.382812 554.058594 C 632.101562 555.777344 630.789062 557.433594 629.347656 559.0625 C 630.601562 560.71875 631.945312 562.34375 633.382812 563.941406 C 650.332031 583.203125 675.195312 595.371094 702.839844 595.371094 C 729.671875 595.371094 753.847656 583.921875 770.765625 565.660156 C 772.203125 564.128906 773.578125 562.5625 774.894531 560.9375 C 773.453125 559.34375 772.046875 557.714844 770.765625 556.027344 Z M 637.417969 446.289062 C 653.242188 427.902344 676.695312 416.238281 702.839844 416.238281 C 728.109375 416.238281 750.875 427.121094 766.667969 444.445312 C 768.105469 446.007812 769.484375 447.636719 770.765625 449.324219 C 772.046875 447.636719 773.421875 446.007812 774.863281 444.445312 C 773.578125 442.820312 772.203125 441.226562 770.765625 439.691406 C 753.847656 421.429688 729.640625 409.984375 702.839844 409.984375 C 675.195312 409.984375 650.332031 422.148438 633.382812 441.414062 C 631.945312 443.007812 630.601562 444.632812 629.347656 446.289062 C 630.789062 447.917969 632.101562 449.574219 633.382812 451.292969 C 634.664062 449.574219 635.980469 447.917969 637.417969 446.289062 Z M 637.417969 446.289062 " fill-opacity="1" fill-rule="nonzero"/></g><g clip-path="url(#9784992be0)"><path fill="#0b1c2c" d="M 838.691406 409.984375 C 811.890625 409.984375 787.683594 421.429688 770.765625 439.691406 C 769.328125 441.226562 767.949219 442.820312 766.667969 444.445312 C 768.105469 446.007812 769.484375 447.636719 770.765625 449.324219 C 772.046875 447.636719 773.421875 446.007812 774.863281 444.445312 C 790.65625 427.121094 813.421875 416.238281 838.691406 416.238281 C 886.351562 416.238281 925.128906 455.015625 925.128906 502.675781 C 925.128906 550.335938 886.351562 589.113281 838.691406 589.113281 C 813.453125 589.113281 790.6875 578.230469 774.894531 560.9375 C 773.453125 559.34375 772.046875 557.714844 770.765625 556.027344 C 769.484375 557.714844 768.105469 559.34375 766.667969 560.90625 C 767.949219 562.53125 769.328125 564.128906 770.765625 565.660156 C 787.683594 583.921875 811.890625 595.371094 838.691406 595.371094 C 889.820312 595.371094 931.382812 553.777344 931.382812 502.675781 C 931.382812 451.574219 889.789062 409.984375 838.691406 409.984375 Z M 838.691406 409.984375 " fill-opacity="1" fill-rule="nonzero"/></g><path fill="#adb5bd" d="M 925.128906 502.675781 C 925.128906 550.335938 886.351562 589.113281 838.691406 589.113281 C 813.453125 589.113281 790.6875 578.230469 774.894531 560.9375 C 773.453125 559.34375 772.046875 557.714844 770.765625 556.027344 C 769.484375 557.714844 768.105469 559.34375 766.667969 560.90625 C 750.875 578.230469 728.109375 589.113281 702.839844 589.113281 C 676.695312 589.113281 653.242188 577.449219 637.417969 559.0625 C 635.980469 557.433594 634.664062 555.777344 633.382812 554.058594 C 632.101562 555.777344 630.789062 557.433594 629.347656 559.0625 C 613.523438 577.449219 590.070312 589.113281 563.925781 589.113281 C 516.265625 589.113281 477.488281 550.335938 477.488281 502.675781 C 477.488281 455.015625 516.265625 416.238281 563.925781 416.238281 C 590.070312 416.238281 613.523438 427.902344 629.347656 446.289062 C 630.789062 447.917969 632.101562 449.574219 633.382812 451.292969 C 634.664062 449.574219 635.980469 447.917969 637.417969 446.289062 C 653.242188 427.902344 676.695312 416.238281 702.839844 416.238281 C 728.109375 416.238281 750.875 427.121094 766.667969 444.445312 C 768.105469 446.007812 769.484375 447.636719 770.765625 449.324219 C 772.046875 447.636719 773.421875 446.007812 774.863281 444.445312 C 790.65625 427.121094 813.421875 416.238281 838.691406 416.238281 C 886.351562 416.238281 925.128906 455.015625 925.128906 502.675781 Z M 925.128906 502.675781 " fill-opacity="1" fill-rule="nonzero"/><path fill="#00f7ff" d="M 975.261719 413.109375 C 947.894531 413.109375 923.378906 425.402344 906.960938 444.726562 C 920.21875 460.332031 928.257812 480.566406 928.257812 502.675781 C 928.257812 524.785156 920.25 544.988281 906.960938 560.625 C 923.378906 579.984375 947.894531 592.242188 975.261719 592.242188 C 1024.734375 592.242188 1064.824219 552.148438 1064.824219 502.675781 C 1064.824219 453.203125 1024.734375 413.109375 975.261719 413.109375 Z M 975.261719 413.109375 " fill-opacity="1" fill-rule="nonzero"/><g clip-path="url(#31a0f19284)"><path fill="#0b1c2c" d="M 975.261719 595.371094 C 947.988281 595.371094 922.253906 583.453125 904.582031 562.65625 L 903.832031 561.78125 L 903.832031 559.46875 L 904.582031 558.59375 C 917.84375 542.988281 925.128906 523.128906 925.128906 502.675781 C 925.128906 482.222656 917.84375 462.363281 904.582031 446.761719 L 902.863281 444.726562 L 904.582031 442.695312 C 922.253906 421.898438 948.019531 409.984375 975.261719 409.984375 C 1026.359375 409.984375 1067.953125 451.574219 1067.953125 502.675781 C 1067.953125 553.777344 1026.390625 595.371094 975.261719 595.371094 Z M 911.085938 560.5625 C 927.476562 578.730469 950.742188 589.113281 975.292969 589.113281 C 1022.953125 589.113281 1061.730469 550.335938 1061.730469 502.675781 C 1061.730469 455.015625 1022.921875 416.238281 975.261719 416.238281 C 950.710938 416.238281 927.476562 426.621094 911.054688 444.789062 C 924.191406 461.175781 931.382812 481.628906 931.382812 502.675781 C 931.382812 523.722656 924.191406 544.144531 911.085938 560.5625 Z M 911.085938 560.5625 " fill-opacity="1" fill-rule="nonzero"/></g><path fill="#0b1c2c" d="M 904.582031 562.65625 C 890.386719 545.957031 882.566406 524.660156 882.566406 502.675781 C 882.566406 480.722656 890.386719 459.425781 904.582031 442.726562 L 909.367188 446.761719 C 896.140625 462.332031 888.851562 482.191406 888.851562 502.675781 C 888.851562 523.160156 896.140625 543.019531 909.367188 558.59375 Z M 904.582031 562.65625 " fill-opacity="1" fill-rule="nonzero"/><path fill="#adb5bd" d="M 705.5 462.175781 L 696.679688 539.109375 " fill-opacity="1" fill-rule="nonzero"/><path fill="#0b1c2c" d="M 696.679688 542.238281 C 696.554688 542.238281 696.429688 542.238281 696.304688 542.207031 C 694.585938 542.019531 693.363281 540.453125 693.550781 538.734375 L 702.371094 461.769531 C 702.558594 460.050781 704.121094 458.832031 705.84375 459.019531 C 707.5625 459.207031 708.78125 460.769531 708.59375 462.492188 L 699.777344 539.453125 C 699.589844 541.078125 698.242188 542.238281 696.679688 542.238281 Z M 696.679688 542.238281 " fill-opacity="1" fill-rule="nonzero"/><path fill="#0b1c2c" d="M 679.449219 526.351562 C 678.574219 526.351562 677.726562 526.007812 677.101562 525.285156 L 660.777344 506.742188 C 659.683594 505.492188 659.746094 503.613281 660.933594 502.425781 L 679.917969 483.882812 C 681.167969 482.660156 683.136719 482.691406 684.328125 483.945312 C 685.546875 485.195312 685.515625 487.164062 684.265625 488.351562 L 667.40625 504.835938 L 681.792969 521.160156 C 682.917969 522.441406 682.824219 524.441406 681.511719 525.566406 C 680.917969 526.101562 680.199219 526.351562 679.449219 526.351562 Z M 679.449219 526.351562 " fill-opacity="1" fill-rule="nonzero"/><path fill="#0b1c2c" d="M 720.507812 526.351562 C 719.695312 526.351562 718.882812 526.039062 718.257812 525.410156 C 717.039062 524.160156 717.070312 522.191406 718.320312 521.003906 L 735.175781 504.519531 L 720.792969 488.195312 C 719.664062 486.914062 719.757812 484.914062 721.074219 483.789062 C 722.355469 482.628906 724.355469 482.785156 725.480469 484.070312 L 741.804688 502.613281 C 742.902344 503.863281 742.839844 505.742188 741.648438 506.929688 L 722.667969 525.472656 C 722.105469 526.070312 721.292969 526.351562 720.507812 526.351562 Z M 720.507812 526.351562 " fill-opacity="1" fill-rule="nonzero"/><path fill="#0b1c2c" d="M 806.011719 519.53125 C 805.195312 519.53125 804.382812 519.21875 803.757812 518.59375 C 802.539062 517.34375 802.570312 515.371094 803.820312 514.183594 L 820.675781 497.703125 L 806.292969 481.378906 C 805.164062 480.097656 805.289062 478.09375 806.574219 476.96875 C 807.855469 475.8125 809.855469 475.9375 810.984375 477.25 L 827.308594 495.796875 C 828.402344 497.046875 828.339844 498.921875 827.152344 500.113281 L 808.167969 518.65625 C 807.605469 519.21875 806.824219 519.53125 806.011719 519.53125 Z M 806.011719 519.53125 " fill-opacity="1" fill-rule="nonzero"/><path fill="#0b1c2c" d="M 870.839844 525.097656 L 834.9375 525.097656 C 833.21875 525.097656 831.808594 523.691406 831.808594 521.972656 C 831.808594 520.25 833.21875 518.84375 834.9375 518.84375 L 870.839844 518.84375 C 872.558594 518.84375 873.964844 520.25 873.964844 521.972656 C 873.964844 523.691406 872.558594 525.097656 870.839844 525.097656 Z M 870.839844 525.097656 " fill-opacity="1" fill-rule="nonzero"/><path fill="#adb5bd" d="M 563.675781 461.925781 L 554.855469 538.859375 " fill-opacity="1" fill-rule="nonzero"/><path fill="#0b1c2c" d="M 554.855469 541.988281 C 554.730469 541.988281 554.605469 541.988281 554.480469 541.957031 C 552.761719 541.765625 551.542969 540.203125 551.730469 538.484375 L 560.546875 461.519531 C 560.734375 459.800781 562.332031 458.582031 564.019531 458.769531 C 565.738281 458.957031 566.960938 460.519531 566.769531 462.238281 L 557.953125 539.203125 C 557.765625 540.828125 556.421875 541.988281 554.855469 541.988281 Z M 554.855469 541.988281 " fill-opacity="1" fill-rule="nonzero"/><path fill="#0b1c2c" d="M 582.878906 528.820312 C 585.878906 527.757812 587.410156 524.910156 587.472656 520.25 L 587.472656 513.996094 C 587.472656 509.554688 589.289062 506.460938 592.882812 504.707031 C 589.289062 502.988281 587.472656 499.832031 587.472656 495.296875 L 587.472656 489.105469 C 587.378906 484.507812 585.847656 481.660156 582.878906 480.535156 L 584.535156 475.78125 C 588.066406 476.78125 590.726562 478.378906 592.476562 480.597656 C 594.261719 482.847656 595.136719 485.757812 595.167969 489.386719 L 595.167969 495.734375 C 595.261719 499.644531 597.011719 501.613281 600.421875 501.613281 L 600.421875 507.742188 C 596.917969 507.742188 595.167969 509.804688 595.167969 513.933594 L 595.167969 520.34375 C 595.011719 527.257812 591.476562 531.667969 584.535156 533.605469 Z M 582.878906 528.820312 " fill-opacity="1" fill-rule="nonzero"/><path fill="#0b1c2c" d="M 536.8125 481.722656 C 533.808594 482.785156 532.277344 485.632812 532.214844 490.292969 L 532.214844 496.546875 C 532.214844 500.988281 530.402344 504.082031 526.804688 505.835938 C 530.402344 507.554688 532.214844 510.714844 532.214844 515.246094 L 532.214844 521.441406 C 532.308594 526.039062 533.839844 528.882812 536.8125 530.007812 L 535.15625 534.761719 C 531.621094 533.761719 528.960938 532.167969 527.210938 529.945312 C 525.429688 527.695312 524.554688 524.785156 524.519531 521.160156 L 524.519531 514.808594 C 524.425781 510.902344 522.675781 508.929688 519.269531 508.929688 L 519.269531 502.800781 C 522.769531 502.800781 524.519531 500.738281 524.519531 496.609375 L 524.519531 490.199219 C 524.679688 483.285156 528.210938 478.878906 535.15625 476.9375 Z M 536.8125 481.722656 " fill-opacity="1" fill-rule="nonzero"/><path fill="#0b1c2c" d="M 1025.046875 502.707031 C 995.992188 511.058594 989.207031 517.84375 980.859375 546.894531 C 972.507812 517.84375 965.722656 511.058594 936.667969 502.707031 C 965.722656 494.359375 972.507812 487.570312 980.859375 458.519531 C 989.207031 487.570312 995.992188 494.328125 1025.046875 502.707031 Z M 1025.046875 502.707031 " fill-opacity="1" fill-rule="nonzero"/><g fill="#ffffff" fill-opacity="1"><g transform="translate(491.33167, 682.437809)"><g><path d="M 42.28125 0 L 8.484375 0 C 7.285156 0 6.6875 -0.597656 6.6875 -1.796875 L 6.6875 -65.703125 C 6.6875 -66.898438 7.285156 -67.5 8.484375 -67.5 L 20.21875 -67.5 C 21.414062 -67.5 22.015625 -66.898438 22.015625 -65.703125 L 22.015625 -13.265625 L 42.28125 -13.265625 C 43.476562 -13.265625 44.078125 -12.664062 44.078125 -11.46875 L 44.078125 -1.796875 C 44.078125 -0.597656 43.476562 0 42.28125 0 Z M 42.28125 0 "/></g></g></g><g fill="#ffffff" fill-opacity="1"><g transform="translate(537.072785, 682.437809)"><g><path d="M 27.859375 1.0625 C 23.378906 1.0625 19.445312 0.203125 16.0625 -1.515625 C 12.675781 -3.234375 10.035156 -5.707031 8.140625 -8.9375 C 6.253906 -12.175781 5.3125 -16.066406 5.3125 -20.609375 L 5.3125 -46.984375 C 5.3125 -48.179688 5.914062 -48.78125 7.125 -48.78125 L 17.53125 -48.78125 C 18.738281 -48.78125 19.34375 -48.179688 19.34375 -46.984375 L 19.34375 -21.140625 C 19.34375 -18.265625 20.054688 -15.929688 21.484375 -14.140625 C 22.921875 -12.359375 25.046875 -11.46875 27.859375 -11.46875 C 29.796875 -11.46875 31.394531 -11.90625 32.65625 -12.78125 C 33.914062 -13.664062 34.851562 -14.835938 35.46875 -16.296875 C 36.082031 -17.765625 36.390625 -19.378906 36.390625 -21.140625 L 36.390625 -46.984375 C 36.390625 -48.179688 36.988281 -48.78125 38.1875 -48.78125 L 48.609375 -48.78125 C 49.804688 -48.78125 50.40625 -48.179688 50.40625 -46.984375 L 50.40625 -20.609375 C 50.40625 -16.066406 49.457031 -12.175781 47.5625 -8.9375 C 45.675781 -5.707031 43.039062 -3.234375 39.65625 -1.515625 C 36.269531 0.203125 32.335938 1.0625 27.859375 1.0625 Z M 27.859375 1.0625 "/></g></g></g><g fill="#ffffff" fill-opacity="1"><g transform="translate(592.87606, 682.437809)"><g><path d="M 63.765625 -49.828125 C 66.515625 -49.828125 68.976562 -49.351562 71.15625 -48.40625 C 73.34375 -47.457031 75.195312 -46.128906 76.71875 -44.421875 C 78.25 -42.722656 79.410156 -40.734375 80.203125 -38.453125 C 80.992188 -36.171875 81.390625 -33.679688 81.390625 -30.984375 L 81.390625 -1.796875 C 81.390625 -0.597656 80.785156 0 79.578125 0 L 69.171875 0 C 67.972656 0 67.375 -0.597656 67.375 -1.796875 L 67.375 -28.078125 C 67.375 -30.015625 67.109375 -31.722656 66.578125 -33.203125 C 66.046875 -34.679688 65.207031 -35.835938 64.0625 -36.671875 C 62.925781 -37.503906 61.421875 -37.921875 59.546875 -37.921875 C 56.703125 -37.921875 54.539062 -37.019531 53.0625 -35.21875 C 51.582031 -33.414062 50.84375 -31.082031 50.84375 -28.21875 L 50.84375 -1.796875 C 50.84375 -0.597656 50.242188 0 49.046875 0 L 38.625 0 C 37.425781 0 36.828125 -0.597656 36.828125 -1.796875 L 36.828125 -28.078125 C 36.828125 -30.015625 36.578125 -31.722656 36.078125 -33.203125 C 35.578125 -34.679688 34.75 -35.835938 33.59375 -36.671875 C 32.4375 -37.503906 30.878906 -37.921875 28.921875 -37.921875 C 26.015625 -37.921875 23.828125 -37.019531 22.359375 -35.21875 C 20.898438 -33.414062 20.171875 -31.082031 20.171875 -28.21875 L 20.171875 -1.796875 C 20.171875 -0.597656 19.570312 0 18.375 0 L 7.90625 0 C 6.707031 0 6.109375 -0.597656 6.109375 -1.796875 L 6.109375 -46.984375 C 6.109375 -48.179688 6.707031 -48.78125 7.90625 -48.78125 L 14.71875 -48.78125 C 15.6875 -48.78125 16.347656 -48.265625 16.703125 -47.234375 L 18.015625 -43.15625 C 20.679688 -45.707031 23.296875 -47.457031 25.859375 -48.40625 C 28.421875 -49.351562 30.921875 -49.828125 33.359375 -49.828125 C 36.140625 -49.828125 38.742188 -49.160156 41.171875 -47.828125 C 43.609375 -46.492188 45.515625 -44.613281 46.890625 -42.1875 C 48.265625 -43.851562 49.867188 -45.25 51.703125 -46.375 C 53.535156 -47.507812 55.488281 -48.367188 57.5625 -48.953125 C 59.644531 -49.535156 61.710938 -49.828125 63.765625 -49.828125 Z M 63.765625 -49.828125 "/></g></g></g><g fill="#ffffff" fill-opacity="1"><g transform="translate(679.876442, 682.437809)"><g><path d="M 63.765625 -49.828125 C 66.515625 -49.828125 68.976562 -49.351562 71.15625 -48.40625 C 73.34375 -47.457031 75.195312 -46.128906 76.71875 -44.421875 C 78.25 -42.722656 79.410156 -40.734375 80.203125 -38.453125 C 80.992188 -36.171875 81.390625 -33.679688 81.390625 -30.984375 L 81.390625 -1.796875 C 81.390625 -0.597656 80.785156 0 79.578125 0 L 69.171875 0 C 67.972656 0 67.375 -0.597656 67.375 -1.796875 L 67.375 -28.078125 C 67.375 -30.015625 67.109375 -31.722656 66.578125 -33.203125 C 66.046875 -34.679688 65.207031 -35.835938 64.0625 -36.671875 C 62.925781 -37.503906 61.421875 -37.921875 59.546875 -37.921875 C 56.703125 -37.921875 54.539062 -37.019531 53.0625 -35.21875 C 51.582031 -33.414062 50.84375 -31.082031 50.84375 -28.21875 L 50.84375 -1.796875 C 50.84375 -0.597656 50.242188 0 49.046875 0 L 38.625 0 C 37.425781 0 36.828125 -0.597656 36.828125 -1.796875 L 36.828125 -28.078125 C 36.828125 -30.015625 36.578125 -31.722656 36.078125 -33.203125 C 35.578125 -34.679688 34.75 -35.835938 33.59375 -36.671875 C 32.4375 -37.503906 30.878906 -37.921875 28.921875 -37.921875 C 26.015625 -37.921875 23.828125 -37.019531 22.359375 -35.21875 C 20.898438 -33.414062 20.171875 -31.082031 20.171875 -28.21875 L 20.171875 -1.796875 C 20.171875 -0.597656 19.570312 0 18.375 0 L 7.90625 0 C 6.707031 0 6.109375 -0.597656 6.109375 -1.796875 L 6.109375 -46.984375 C 6.109375 -48.179688 6.707031 -48.78125 7.90625 -48.78125 L 14.71875 -48.78125 C 15.6875 -48.78125 16.347656 -48.265625 16.703125 -47.234375 L 18.015625 -43.15625 C 20.679688 -45.707031 23.296875 -47.457031 25.859375 -48.40625 C 28.421875 -49.351562 30.921875 -49.828125 33.359375 -49.828125 C 36.140625 -49.828125 38.742188 -49.160156 41.171875 -47.828125 C 43.609375 -46.492188 45.515625 -44.613281 46.890625 -42.1875 C 48.265625 -43.851562 49.867188 -45.25 51.703125 -46.375 C 53.535156 -47.507812 55.488281 -48.367188 57.5625 -48.953125 C 59.644531 -49.535156 61.710938 -49.828125 63.765625 -49.828125 Z M 63.765625 -49.828125 "/></g></g></g><g fill="#ffffff" fill-opacity="1"><g transform="translate(766.876812, 682.437809)"><g><path d="M 13.046875 -52.34375 C 11.554688 -52.34375 10.203125 -52.691406 8.984375 -53.390625 C 7.765625 -54.097656 6.800781 -55.054688 6.09375 -56.265625 C 5.394531 -57.484375 5.046875 -58.851562 5.046875 -60.375 C 5.046875 -61.875 5.394531 -63.226562 6.09375 -64.4375 C 6.800781 -65.65625 7.765625 -66.625 8.984375 -67.34375 C 10.203125 -68.0625 11.554688 -68.421875 13.046875 -68.421875 C 14.578125 -68.421875 15.945312 -68.0625 17.15625 -67.34375 C 18.375 -66.625 19.332031 -65.65625 20.03125 -64.4375 C 20.738281 -63.226562 21.09375 -61.875 21.09375 -60.375 C 21.09375 -58.851562 20.738281 -57.484375 20.03125 -56.265625 C 19.332031 -55.054688 18.375 -54.097656 17.15625 -53.390625 C 15.945312 -52.691406 14.578125 -52.34375 13.046875 -52.34375 Z M 18.375 0 L 7.90625 0 C 6.707031 0 6.109375 -0.597656 6.109375 -1.796875 L 6.109375 -46.984375 C 6.109375 -48.179688 6.707031 -48.78125 7.90625 -48.78125 L 18.375 -48.78125 C 19.570312 -48.78125 20.171875 -48.179688 20.171875 -46.984375 L 20.171875 -1.796875 C 20.171875 -0.597656 19.570312 0 18.375 0 Z M 18.375 0 "/></g></g></g><g fill="#ffffff" fill-opacity="1"><g transform="translate(793.240564, 682.437809)"><g><path d="M 63.765625 -49.828125 C 66.515625 -49.828125 68.976562 -49.351562 71.15625 -48.40625 C 73.34375 -47.457031 75.195312 -46.128906 76.71875 -44.421875 C 78.25 -42.722656 79.410156 -40.734375 80.203125 -38.453125 C 80.992188 -36.171875 81.390625 -33.679688 81.390625 -30.984375 L 81.390625 -1.796875 C 81.390625 -0.597656 80.785156 0 79.578125 0 L 69.171875 0 C 67.972656 0 67.375 -0.597656 67.375 -1.796875 L 67.375 -28.078125 C 67.375 -30.015625 67.109375 -31.722656 66.578125 -33.203125 C 66.046875 -34.679688 65.207031 -35.835938 64.0625 -36.671875 C 62.925781 -37.503906 61.421875 -37.921875 59.546875 -37.921875 C 56.703125 -37.921875 54.539062 -37.019531 53.0625 -35.21875 C 51.582031 -33.414062 50.84375 -31.082031 50.84375 -28.21875 L 50.84375 -1.796875 C 50.84375 -0.597656 50.242188 0 49.046875 0 L 38.625 0 C 37.425781 0 36.828125 -0.597656 36.828125 -1.796875 L 36.828125 -28.078125 C 36.828125 -30.015625 36.578125 -31.722656 36.078125 -33.203125 C 35.578125 -34.679688 34.75 -35.835938 33.59375 -36.671875 C 32.4375 -37.503906 30.878906 -37.921875 28.921875 -37.921875 C 26.015625 -37.921875 23.828125 -37.019531 22.359375 -35.21875 C 20.898438 -33.414062 20.171875 -31.082031 20.171875 -28.21875 L 20.171875 -1.796875 C 20.171875 -0.597656 19.570312 0 18.375 0 L 7.90625 0 C 6.707031 0 6.109375 -0.597656 6.109375 -1.796875 L 6.109375 -46.984375 C 6.109375 -48.179688 6.707031 -48.78125 7.90625 -48.78125 L 14.71875 -48.78125 C 15.6875 -48.78125 16.347656 -48.265625 16.703125 -47.234375 L 18.015625 -43.15625 C 20.679688 -45.707031 23.296875 -47.457031 25.859375 -48.40625 C 28.421875 -49.351562 30.921875 -49.828125 33.359375 -49.828125 C 36.140625 -49.828125 38.742188 -49.160156 41.171875 -47.828125 C 43.609375 -46.492188 45.515625 -44.613281 46.890625 -42.1875 C 48.265625 -43.851562 49.867188 -45.25 51.703125 -46.375 C 53.535156 -47.507812 55.488281 -48.367188 57.5625 -48.953125 C 59.644531 -49.535156 61.710938 -49.828125 63.765625 -49.828125 Z M 63.765625 -49.828125 "/></g></g></g><g fill="#ffffff" fill-opacity="1"><g transform="translate(880.240968, 682.437809)"><g><path d="M 15.828125 1.0625 C 14.179688 1.0625 12.675781 0.660156 11.3125 -0.140625 C 9.945312 -0.953125 8.863281 -2.039062 8.0625 -3.40625 C 7.257812 -4.769531 6.859375 -6.269531 6.859375 -7.90625 C 6.859375 -9.519531 7.257812 -11.007812 8.0625 -12.375 C 8.863281 -13.738281 9.945312 -14.835938 11.3125 -15.671875 C 12.675781 -16.503906 14.179688 -16.921875 15.828125 -16.921875 C 17.492188 -16.921875 19.003906 -16.507812 20.359375 -15.6875 C 21.722656 -14.863281 22.800781 -13.769531 23.59375 -12.40625 C 24.382812 -11.050781 24.78125 -9.550781 24.78125 -7.90625 C 24.78125 -6.207031 24.367188 -4.679688 23.546875 -3.328125 C 22.734375 -1.984375 21.648438 -0.914062 20.296875 -0.125 C 18.953125 0.664062 17.460938 1.0625 15.828125 1.0625 Z M 15.828125 1.0625 "/></g></g></g><g fill="#ffffff" fill-opacity="1"><g transform="translate(911.921416, 682.437809)"><g><path d="M 57.921875 -65.703125 L 58.015625 -1.796875 C 58.015625 -0.597656 57.410156 0 56.203125 0 L 49.390625 0 C 48.421875 0 47.765625 -0.507812 47.421875 -1.53125 L 45.828125 -6.546875 C 43.722656 -4.140625 41.164062 -2.269531 38.15625 -0.9375 C 35.15625 0.394531 31.898438 1.0625 28.390625 1.0625 C 24.867188 1.0625 21.617188 0.398438 18.640625 -0.921875 C 15.671875 -2.242188 13.09375 -4.078125 10.90625 -6.421875 C 8.726562 -8.765625 7.03125 -11.460938 5.8125 -14.515625 C 4.601562 -17.578125 4 -20.867188 4 -24.390625 C 4 -27.898438 4.601562 -31.1875 5.8125 -34.25 C 7.03125 -37.3125 8.726562 -40.015625 10.90625 -42.359375 C 13.09375 -44.703125 15.671875 -46.53125 18.640625 -47.84375 C 21.617188 -49.164062 24.867188 -49.828125 28.390625 -49.828125 C 31.265625 -49.828125 34.03125 -49.34375 36.6875 -48.375 C 39.351562 -47.414062 41.757812 -46.070312 43.90625 -44.34375 L 43.859375 -65.703125 C 43.859375 -66.898438 44.457031 -67.5 45.65625 -67.5 L 56.125 -67.5 C 57.320312 -67.5 57.921875 -66.898438 57.921875 -65.703125 Z M 31.296875 -11.125 C 33.140625 -11.125 34.859375 -11.46875 36.453125 -12.15625 C 38.046875 -12.84375 39.453125 -13.789062 40.671875 -15 C 41.890625 -16.21875 42.84375 -17.625 43.53125 -19.21875 C 44.21875 -20.820312 44.5625 -22.546875 44.5625 -24.390625 C 44.5625 -26.234375 44.21875 -27.953125 43.53125 -29.546875 C 42.84375 -31.148438 41.890625 -32.554688 40.671875 -33.765625 C 39.453125 -34.984375 38.046875 -35.9375 36.453125 -36.625 C 34.859375 -37.3125 33.140625 -37.65625 31.296875 -37.65625 C 29.441406 -37.65625 27.71875 -37.3125 26.125 -36.625 C 24.53125 -35.9375 23.125 -34.984375 21.90625 -33.765625 C 20.6875 -32.554688 19.734375 -31.148438 19.046875 -29.546875 C 18.359375 -27.953125 18.015625 -26.234375 18.015625 -24.390625 C 18.015625 -22.546875 18.359375 -20.820312 19.046875 -19.21875 C 19.734375 -17.625 20.6875 -16.21875 21.90625 -15 C 23.125 -13.789062 24.53125 -12.84375 26.125 -12.15625 C 27.71875 -11.46875 29.441406 -11.125 31.296875 -11.125 Z M 31.296875 -11.125 "/></g></g></g><g fill="#ffffff" fill-opacity="1"><g transform="translate(976.029291, 682.437809)"><g><path d="M 18.375 0 L 7.90625 0 C 6.707031 0 6.109375 -0.597656 6.109375 -1.796875 L 6.109375 -65.703125 C 6.109375 -66.898438 6.707031 -67.5 7.90625 -67.5 L 18.375 -67.5 C 19.570312 -67.5 20.171875 -66.898438 20.171875 -65.703125 L 20.171875 -28.703125 L 35.8125 -47.765625 C 36.34375 -48.441406 37.0625 -48.78125 37.96875 -48.78125 L 51.375 -48.78125 C 52.132812 -48.78125 52.609375 -48.5625 52.796875 -48.125 C 52.992188 -47.6875 52.84375 -47.15625 52.34375 -46.53125 L 34.71875 -26.40625 L 53.4375 -2.203125 C 53.90625 -1.554688 54.019531 -1.023438 53.78125 -0.609375 C 53.550781 -0.203125 53.054688 0 52.296875 0 L 39.5 0 C 38.59375 0 37.878906 -0.378906 37.359375 -1.140625 L 20.171875 -24.390625 L 20.171875 -1.796875 C 20.171875 -0.597656 19.570312 0 18.375 0 Z M 18.375 0 "/></g></g></g><g transform="matrix(1, 0, 0, 1, 412, 699)"><g clip-path="url(#8c1e2d9587)"><g fill="#ffffff" fill-opacity="1"><g transform="translate(1.37117, 58.057239)"><g><path d="M 24.296875 0.875 C 21.878906 0.875 19.570312 0.53125 17.375 -0.15625 C 15.1875 -0.84375 13.179688 -1.828125 11.359375 -3.109375 C 9.535156 -4.390625 7.953125 -5.929688 6.609375 -7.734375 C 5.265625 -9.535156 4.222656 -11.5625 3.484375 -13.8125 C 2.753906 -16.070312 2.390625 -18.503906 2.390625 -21.109375 C 2.390625 -23.703125 2.757812 -26.125 3.5 -28.375 C 4.238281 -30.632812 5.273438 -32.664062 6.609375 -34.46875 C 7.953125 -36.28125 9.535156 -37.828125 11.359375 -39.109375 C 13.179688 -40.390625 15.179688 -41.375 17.359375 -42.0625 C 19.546875 -42.75 21.835938 -43.09375 24.234375 -43.09375 C 27.296875 -43.09375 30.132812 -42.554688 32.75 -41.484375 C 35.375 -40.410156 37.664062 -38.929688 39.625 -37.046875 C 39.90625 -36.785156 40.03125 -36.519531 40 -36.25 C 39.96875 -35.988281 39.828125 -35.734375 39.578125 -35.484375 L 37.125 -33.53125 C 36.613281 -33.050781 36.09375 -33.054688 35.5625 -33.546875 C 34.0625 -34.910156 32.351562 -35.972656 30.4375 -36.734375 C 28.519531 -37.503906 26.453125 -37.890625 24.234375 -37.890625 C 21.984375 -37.890625 19.863281 -37.488281 17.875 -36.6875 C 15.882812 -35.882812 14.132812 -34.738281 12.625 -33.25 C 11.113281 -31.769531 9.925781 -30.003906 9.0625 -27.953125 C 8.207031 -25.898438 7.78125 -23.632812 7.78125 -21.15625 C 7.78125 -18.664062 8.207031 -16.390625 9.0625 -14.328125 C 9.925781 -12.265625 11.117188 -10.488281 12.640625 -9 C 14.160156 -7.507812 15.914062 -6.351562 17.90625 -5.53125 C 19.90625 -4.71875 22.050781 -4.3125 24.34375 -4.3125 C 26.507812 -4.3125 28.550781 -4.703125 30.46875 -5.484375 C 32.394531 -6.265625 34.09375 -7.320312 35.5625 -8.65625 C 36.070312 -9.132812 36.59375 -9.144531 37.125 -8.6875 L 39.578125 -6.78125 C 40.179688 -6.25 40.234375 -5.738281 39.734375 -5.25 C 37.796875 -3.363281 35.5 -1.867188 32.84375 -0.765625 C 30.195312 0.328125 27.347656 0.875 24.296875 0.875 Z M 24.296875 0.875 "/></g></g></g><g fill="#ffffff" fill-opacity="1"><g transform="translate(41.827633, 58.057239)"><g><path d="M 24.34375 0.875 C 21.90625 0.875 19.582031 0.53125 17.375 -0.15625 C 15.175781 -0.84375 13.164062 -1.832031 11.34375 -3.125 C 9.519531 -4.414062 7.9375 -5.96875 6.59375 -7.78125 C 5.257812 -9.59375 4.222656 -11.617188 3.484375 -13.859375 C 2.753906 -16.109375 2.390625 -18.523438 2.390625 -21.109375 C 2.390625 -23.691406 2.753906 -26.101562 3.484375 -28.34375 C 4.222656 -30.59375 5.257812 -32.617188 6.59375 -34.421875 C 7.9375 -36.222656 9.519531 -37.769531 11.34375 -39.0625 C 13.164062 -40.351562 15.175781 -41.347656 17.375 -42.046875 C 19.582031 -42.742188 21.90625 -43.09375 24.34375 -43.09375 C 26.78125 -43.09375 29.101562 -42.742188 31.3125 -42.046875 C 33.519531 -41.347656 35.539062 -40.351562 37.375 -39.0625 C 39.207031 -37.769531 40.789062 -36.222656 42.125 -34.421875 C 43.46875 -32.617188 44.503906 -30.59375 45.234375 -28.34375 C 45.960938 -26.101562 46.328125 -23.691406 46.328125 -21.109375 C 46.328125 -18.523438 45.960938 -16.109375 45.234375 -13.859375 C 44.503906 -11.617188 43.46875 -9.59375 42.125 -7.78125 C 40.789062 -5.96875 39.207031 -4.414062 37.375 -3.125 C 35.539062 -1.832031 33.523438 -0.84375 31.328125 -0.15625 C 29.128906 0.53125 26.800781 0.875 24.34375 0.875 Z M 24.34375 -4.3125 C 26.632812 -4.3125 28.78125 -4.710938 30.78125 -5.515625 C 32.78125 -6.328125 34.539062 -7.476562 36.0625 -8.96875 C 37.582031 -10.46875 38.769531 -12.242188 39.625 -14.296875 C 40.488281 -16.347656 40.921875 -18.617188 40.921875 -21.109375 C 40.921875 -23.597656 40.488281 -25.867188 39.625 -27.921875 C 38.769531 -29.972656 37.582031 -31.742188 36.0625 -33.234375 C 34.539062 -34.734375 32.78125 -35.882812 30.78125 -36.6875 C 28.78125 -37.488281 26.632812 -37.890625 24.34375 -37.890625 C 22.050781 -37.890625 19.898438 -37.488281 17.890625 -36.6875 C 15.890625 -35.882812 14.128906 -34.734375 12.609375 -33.234375 C 11.085938 -31.742188 9.898438 -29.972656 9.046875 -27.921875 C 8.203125 -25.867188 7.78125 -23.597656 7.78125 -21.109375 C 7.78125 -18.628906 8.207031 -16.363281 9.0625 -14.3125 C 9.925781 -12.257812 11.117188 -10.488281 12.640625 -9 C 14.160156 -7.507812 15.914062 -6.351562 17.90625 -5.53125 C 19.90625 -4.71875 22.050781 -4.3125 24.34375 -4.3125 Z M 24.34375 -4.3125 "/></g></g></g><g fill="#ffffff" fill-opacity="1"><g transform="translate(90.551994, 58.057239)"><g><path d="M 14.625 0 L 5.296875 0 C 4.546875 0 4.171875 -0.375 4.171875 -1.125 L 4.171875 -41.078125 C 4.171875 -41.835938 4.546875 -42.21875 5.296875 -42.21875 L 14.625 -42.21875 C 17.988281 -42.21875 21.019531 -41.742188 23.71875 -40.796875 C 26.425781 -39.847656 28.738281 -38.476562 30.65625 -36.6875 C 32.570312 -34.894531 34.035156 -32.695312 35.046875 -30.09375 C 36.066406 -27.488281 36.578125 -24.519531 36.578125 -21.1875 C 36.578125 -17.882812 36.066406 -14.921875 35.046875 -12.296875 C 34.035156 -9.679688 32.578125 -7.457031 30.671875 -5.625 C 28.765625 -3.800781 26.457031 -2.40625 23.75 -1.4375 C 21.050781 -0.476562 18.007812 0 14.625 0 Z M 9.59375 -37.1875 L 9.59375 -5.03125 L 14.53125 -5.03125 C 17.976562 -5.03125 20.941406 -5.65625 23.421875 -6.90625 C 25.910156 -8.164062 27.828125 -10.003906 29.171875 -12.421875 C 30.515625 -14.835938 31.1875 -17.769531 31.1875 -21.21875 C 31.1875 -24.675781 30.515625 -27.59375 29.171875 -29.96875 C 27.828125 -32.34375 25.910156 -34.140625 23.421875 -35.359375 C 20.941406 -36.578125 17.976562 -37.1875 14.53125 -37.1875 Z M 9.59375 -37.1875 "/></g></g></g><g fill="#ffffff" fill-opacity="1"><g transform="translate(129.608387, 58.057239)"><g><path d="M 25.71875 0 L 5.296875 0 C 4.546875 0 4.171875 -0.375 4.171875 -1.125 L 4.171875 -41.078125 C 4.171875 -41.835938 4.546875 -42.21875 5.296875 -42.21875 L 25.71875 -42.21875 C 26.46875 -42.21875 26.84375 -41.835938 26.84375 -41.078125 L 26.84375 -38.3125 C 26.84375 -37.5625 26.46875 -37.1875 25.71875 -37.1875 L 9.5625 -37.1875 L 9.5625 -18.40625 L 23.53125 -18.40625 C 24.28125 -18.40625 24.65625 -18.03125 24.65625 -17.28125 L 24.65625 -14.625 C 24.65625 -13.875 24.28125 -13.5 23.53125 -13.5 L 9.5625 -13.5 L 9.5625 -5.03125 L 25.71875 -5.03125 C 26.46875 -5.03125 26.84375 -4.65625 26.84375 -3.90625 L 26.84375 -1.125 C 26.84375 -0.375 26.46875 0 25.71875 0 Z M 25.71875 0 "/></g></g></g><g fill="#ffffff" fill-opacity="1"><g transform="translate(158.639756, 58.057239)"><g><path d="M 9.53125 0.578125 C 8.832031 0.578125 8.195312 0.40625 7.625 0.0625 C 7.050781 -0.269531 6.59375 -0.722656 6.25 -1.296875 C 5.914062 -1.878906 5.75 -2.53125 5.75 -3.25 C 5.75 -3.957031 5.914062 -4.597656 6.25 -5.171875 C 6.59375 -5.753906 7.050781 -6.21875 7.625 -6.5625 C 8.195312 -6.914062 8.832031 -7.09375 9.53125 -7.09375 C 10.25 -7.09375 10.898438 -6.914062 11.484375 -6.5625 C 12.066406 -6.21875 12.53125 -5.753906 12.875 -5.171875 C 13.226562 -4.597656 13.40625 -3.957031 13.40625 -3.25 C 13.40625 -2.53125 13.226562 -1.878906 12.875 -1.296875 C 12.519531 -0.722656 12.046875 -0.269531 11.453125 0.0625 C 10.867188 0.40625 10.226562 0.578125 9.53125 0.578125 Z M 9.53125 0.578125 "/></g></g></g><g fill="#ffffff" fill-opacity="1"><g transform="translate(177.7285, 58.057239)"><g/></g></g><g fill="#ffffff" fill-opacity="1"><g transform="translate(193.850935, 58.057239)"><g><path d="M 24.296875 0.875 C 21.878906 0.875 19.570312 0.53125 17.375 -0.15625 C 15.1875 -0.84375 13.179688 -1.828125 11.359375 -3.109375 C 9.535156 -4.390625 7.953125 -5.929688 6.609375 -7.734375 C 5.265625 -9.535156 4.222656 -11.5625 3.484375 -13.8125 C 2.753906 -16.070312 2.390625 -18.503906 2.390625 -21.109375 C 2.390625 -23.703125 2.757812 -26.125 3.5 -28.375 C 4.238281 -30.632812 5.273438 -32.664062 6.609375 -34.46875 C 7.953125 -36.28125 9.535156 -37.828125 11.359375 -39.109375 C 13.179688 -40.390625 15.179688 -41.375 17.359375 -42.0625 C 19.546875 -42.75 21.835938 -43.09375 24.234375 -43.09375 C 27.296875 -43.09375 30.132812 -42.554688 32.75 -41.484375 C 35.375 -40.410156 37.664062 -38.929688 39.625 -37.046875 C 39.90625 -36.785156 40.03125 -36.519531 40 -36.25 C 39.96875 -35.988281 39.828125 -35.734375 39.578125 -35.484375 L 37.125 -33.53125 C 36.613281 -33.050781 36.09375 -33.054688 35.5625 -33.546875 C 34.0625 -34.910156 32.351562 -35.972656 30.4375 -36.734375 C 28.519531 -37.503906 26.453125 -37.890625 24.234375 -37.890625 C 21.984375 -37.890625 19.863281 -37.488281 17.875 -36.6875 C 15.882812 -35.882812 14.132812 -34.738281 12.625 -33.25 C 11.113281 -31.769531 9.925781 -30.003906 9.0625 -27.953125 C 8.207031 -25.898438 7.78125 -23.632812 7.78125 -21.15625 C 7.78125 -18.664062 8.207031 -16.390625 9.0625 -14.328125 C 9.925781 -12.265625 11.117188 -10.488281 12.640625 -9 C 14.160156 -7.507812 15.914062 -6.351562 17.90625 -5.53125 C 19.90625 -4.71875 22.050781 -4.3125 24.34375 -4.3125 C 26.507812 -4.3125 28.550781 -4.703125 30.46875 -5.484375 C 32.394531 -6.265625 34.09375 -7.320312 35.5625 -8.65625 C 36.070312 -9.132812 36.59375 -9.144531 37.125 -8.6875 L 39.578125 -6.78125 C 40.179688 -6.25 40.234375 -5.738281 39.734375 -5.25 C 37.796875 -3.363281 35.5 -1.867188 32.84375 -0.765625 C 30.195312 0.328125 27.347656 0.875 24.296875 0.875 Z M 24.296875 0.875 "/></g></g></g><g fill="#ffffff" fill-opacity="1"><g transform="translate(235.598978, 58.057239)"><g><path d="M 25.640625 -14.75 L 32.484375 -1.34375 C 32.679688 -0.9375 32.695312 -0.609375 32.53125 -0.359375 C 32.375 -0.117188 32.082031 0 31.65625 0 L 27.96875 0 C 27.382812 0 26.957031 -0.285156 26.6875 -0.859375 L 20.359375 -13.390625 C 19.796875 -13.304688 19.21875 -13.25 18.625 -13.21875 C 18.039062 -13.195312 17.429688 -13.1875 16.796875 -13.1875 L 9.515625 -13.1875 L 9.515625 -1.125 C 9.515625 -0.375 9.132812 0 8.375 0 L 5.296875 0 C 4.546875 0 4.171875 -0.375 4.171875 -1.125 L 4.171875 -41.078125 C 4.171875 -41.835938 4.546875 -42.21875 5.296875 -42.21875 L 16.4375 -42.21875 C 22.144531 -42.21875 26.328125 -40.976562 28.984375 -38.5 C 31.648438 -36.03125 32.984375 -32.445312 32.984375 -27.75 C 32.984375 -21.226562 30.535156 -16.894531 25.640625 -14.75 Z M 9.515625 -18.21875 L 16.109375 -18.21875 C 16.671875 -18.21875 17.34375 -18.234375 18.125 -18.265625 C 18.914062 -18.304688 19.75 -18.414062 20.625 -18.59375 C 21.5 -18.769531 22.351562 -19.050781 23.1875 -19.4375 C 24.03125 -19.832031 24.789062 -20.378906 25.46875 -21.078125 C 26.144531 -21.773438 26.691406 -22.660156 27.109375 -23.734375 C 27.523438 -24.816406 27.734375 -26.148438 27.734375 -27.734375 C 27.734375 -29.285156 27.53125 -30.601562 27.125 -31.6875 C 26.71875 -32.769531 26.175781 -33.65625 25.5 -34.34375 C 24.820312 -35.039062 24.066406 -35.582031 23.234375 -35.96875 C 22.398438 -36.351562 21.546875 -36.632812 20.671875 -36.8125 C 19.804688 -36.988281 18.972656 -37.09375 18.171875 -37.125 C 17.378906 -37.164062 16.691406 -37.1875 16.109375 -37.1875 L 9.515625 -37.1875 Z M 9.515625 -18.21875 "/></g></g></g><g fill="#ffffff" fill-opacity="1"><g transform="translate(271.44187, 58.057239)"><g><path d="M 25.71875 0 L 5.296875 0 C 4.546875 0 4.171875 -0.375 4.171875 -1.125 L 4.171875 -41.078125 C 4.171875 -41.835938 4.546875 -42.21875 5.296875 -42.21875 L 25.71875 -42.21875 C 26.46875 -42.21875 26.84375 -41.835938 26.84375 -41.078125 L 26.84375 -38.3125 C 26.84375 -37.5625 26.46875 -37.1875 25.71875 -37.1875 L 9.5625 -37.1875 L 9.5625 -18.40625 L 23.53125 -18.40625 C 24.28125 -18.40625 24.65625 -18.03125 24.65625 -17.28125 L 24.65625 -14.625 C 24.65625 -13.875 24.28125 -13.5 23.53125 -13.5 L 9.5625 -13.5 L 9.5625 -5.03125 L 25.71875 -5.03125 C 26.46875 -5.03125 26.84375 -4.65625 26.84375 -3.90625 L 26.84375 -1.125 C 26.84375 -0.375 26.46875 0 25.71875 0 Z M 25.71875 0 "/></g></g></g><g fill="#ffffff" fill-opacity="1"><g transform="translate(300.47324, 58.057239)"><g><path d="M 20.46875 -42.21875 L 37.921875 -1.296875 C 38.085938 -0.910156 38.09375 -0.597656 37.9375 -0.359375 C 37.78125 -0.117188 37.492188 0 37.078125 0 L 33.578125 0 C 33.285156 0 33.023438 -0.0664062 32.796875 -0.203125 C 32.566406 -0.335938 32.398438 -0.554688 32.296875 -0.859375 L 29.21875 -8.375 L 9.640625 -8.375 L 6.5625 -0.859375 C 6.320312 -0.285156 5.882812 0 5.25 0 L 1.78125 0 C 1.363281 0 1.078125 -0.117188 0.921875 -0.359375 C 0.765625 -0.597656 0.769531 -0.910156 0.9375 -1.296875 L 18.390625 -42.21875 C 18.640625 -42.832031 18.984375 -43.140625 19.421875 -43.140625 C 19.867188 -43.140625 20.21875 -42.832031 20.46875 -42.21875 Z M 19.421875 -32.296875 L 11.5625 -13.078125 L 27.28125 -13.078125 Z M 19.421875 -32.296875 "/></g></g></g><g fill="#ffffff" fill-opacity="1"><g transform="translate(334.693177, 58.057239)"><g><path d="M 15.640625 0 L 12.46875 0 C 11.71875 0 11.34375 -0.375 11.34375 -1.125 L 11.34375 -37.1875 L 1.78125 -37.1875 C 1.03125 -37.1875 0.65625 -37.5625 0.65625 -38.3125 L 0.65625 -41.078125 C 0.65625 -41.835938 1.03125 -42.21875 1.78125 -42.21875 L 26.328125 -42.21875 C 27.078125 -42.21875 27.453125 -41.835938 27.453125 -41.078125 L 27.453125 -38.3125 C 27.453125 -37.5625 27.078125 -37.1875 26.328125 -37.1875 L 16.765625 -37.1875 L 16.765625 -1.125 C 16.765625 -0.375 16.390625 0 15.640625 0 Z M 15.640625 0 "/></g></g></g><g fill="#ffffff" fill-opacity="1"><g transform="translate(362.818175, 58.057239)"><g><path d="M 25.71875 0 L 5.296875 0 C 4.546875 0 4.171875 -0.375 4.171875 -1.125 L 4.171875 -41.078125 C 4.171875 -41.835938 4.546875 -42.21875 5.296875 -42.21875 L 25.71875 -42.21875 C 26.46875 -42.21875 26.84375 -41.835938 26.84375 -41.078125 L 26.84375 -38.3125 C 26.84375 -37.5625 26.46875 -37.1875 25.71875 -37.1875 L 9.5625 -37.1875 L 9.5625 -18.40625 L 23.53125 -18.40625 C 24.28125 -18.40625 24.65625 -18.03125 24.65625 -17.28125 L 24.65625 -14.625 C 24.65625 -13.875 24.28125 -13.5 23.53125 -13.5 L 9.5625 -13.5 L 9.5625 -5.03125 L 25.71875 -5.03125 C 26.46875 -5.03125 26.84375 -4.65625 26.84375 -3.90625 L 26.84375 -1.125 C 26.84375 -0.375 26.46875 0 25.71875 0 Z M 25.71875 0 "/></g></g></g><g fill="#ffffff" fill-opacity="1"><g transform="translate(391.849544, 58.057239)"><g><path d="M 9.53125 0.578125 C 8.832031 0.578125 8.195312 0.40625 7.625 0.0625 C 7.050781 -0.269531 6.59375 -0.722656 6.25 -1.296875 C 5.914062 -1.878906 5.75 -2.53125 5.75 -3.25 C 5.75 -3.957031 5.914062 -4.597656 6.25 -5.171875 C 6.59375 -5.753906 7.050781 -6.21875 7.625 -6.5625 C 8.195312 -6.914062 8.832031 -7.09375 9.53125 -7.09375 C 10.25 -7.09375 10.898438 -6.914062 11.484375 -6.5625 C 12.066406 -6.21875 12.53125 -5.753906 12.875 -5.171875 C 13.226562 -4.597656 13.40625 -3.957031 13.40625 -3.25 C 13.40625 -2.53125 13.226562 -1.878906 12.875 -1.296875 C 12.519531 -0.722656 12.046875 -0.269531 11.453125 0.0625 C 10.867188 0.40625 10.226562 0.578125 9.53125 0.578125 Z M 9.53125 0.578125 "/></g></g></g><g fill="#ffffff" fill-opacity="1"><g transform="translate(410.938288, 58.057239)"><g/></g></g><g fill="#ffffff" fill-opacity="1"><g transform="translate(427.060723, 58.057239)"><g><path d="M 24.296875 0.875 C 21.878906 0.875 19.570312 0.53125 17.375 -0.15625 C 15.1875 -0.84375 13.179688 -1.828125 11.359375 -3.109375 C 9.535156 -4.390625 7.953125 -5.929688 6.609375 -7.734375 C 5.265625 -9.535156 4.222656 -11.5625 3.484375 -13.8125 C 2.753906 -16.070312 2.390625 -18.503906 2.390625 -21.109375 C 2.390625 -23.703125 2.757812 -26.125 3.5 -28.375 C 4.238281 -30.632812 5.273438 -32.664062 6.609375 -34.46875 C 7.953125 -36.28125 9.535156 -37.828125 11.359375 -39.109375 C 13.179688 -40.390625 15.179688 -41.375 17.359375 -42.0625 C 19.546875 -42.75 21.835938 -43.09375 24.234375 -43.09375 C 27.296875 -43.09375 30.132812 -42.554688 32.75 -41.484375 C 35.375 -40.410156 37.664062 -38.929688 39.625 -37.046875 C 39.90625 -36.785156 40.03125 -36.519531 40 -36.25 C 39.96875 -35.988281 39.828125 -35.734375 39.578125 -35.484375 L 37.125 -33.53125 C 36.613281 -33.050781 36.09375 -33.054688 35.5625 -33.546875 C 34.0625 -34.910156 32.351562 -35.972656 30.4375 -36.734375 C 28.519531 -37.503906 26.453125 -37.890625 24.234375 -37.890625 C 21.984375 -37.890625 19.863281 -37.488281 17.875 -36.6875 C 15.882812 -35.882812 14.132812 -34.738281 12.625 -33.25 C 11.113281 -31.769531 9.925781 -30.003906 9.0625 -27.953125 C 8.207031 -25.898438 7.78125 -23.632812 7.78125 -21.15625 C 7.78125 -18.664062 8.207031 -16.390625 9.0625 -14.328125 C 9.925781 -12.265625 11.117188 -10.488281 12.640625 -9 C 14.160156 -7.507812 15.914062 -6.351562 17.90625 -5.53125 C 19.90625 -4.71875 22.050781 -4.3125 24.34375 -4.3125 C 26.507812 -4.3125 28.550781 -4.703125 30.46875 -5.484375 C 32.394531 -6.265625 34.09375 -7.320312 35.5625 -8.65625 C 36.070312 -9.132812 36.59375 -9.144531 37.125 -8.6875 L 39.578125 -6.78125 C 40.179688 -6.25 40.234375 -5.738281 39.734375 -5.25 C 37.796875 -3.363281 35.5 -1.867188 32.84375 -0.765625 C 30.195312 0.328125 27.347656 0.875 24.296875 0.875 Z M 24.296875 0.875 "/></g></g></g><g fill="#ffffff" fill-opacity="1"><g transform="translate(467.517186, 58.057239)"><g><path d="M 24.34375 0.875 C 21.90625 0.875 19.582031 0.53125 17.375 -0.15625 C 15.175781 -0.84375 13.164062 -1.832031 11.34375 -3.125 C 9.519531 -4.414062 7.9375 -5.96875 6.59375 -7.78125 C 5.257812 -9.59375 4.222656 -11.617188 3.484375 -13.859375 C 2.753906 -16.109375 2.390625 -18.523438 2.390625 -21.109375 C 2.390625 -23.691406 2.753906 -26.101562 3.484375 -28.34375 C 4.222656 -30.59375 5.257812 -32.617188 6.59375 -34.421875 C 7.9375 -36.222656 9.519531 -37.769531 11.34375 -39.0625 C 13.164062 -40.351562 15.175781 -41.347656 17.375 -42.046875 C 19.582031 -42.742188 21.90625 -43.09375 24.34375 -43.09375 C 26.78125 -43.09375 29.101562 -42.742188 31.3125 -42.046875 C 33.519531 -41.347656 35.539062 -40.351562 37.375 -39.0625 C 39.207031 -37.769531 40.789062 -36.222656 42.125 -34.421875 C 43.46875 -32.617188 44.503906 -30.59375 45.234375 -28.34375 C 45.960938 -26.101562 46.328125 -23.691406 46.328125 -21.109375 C 46.328125 -18.523438 45.960938 -16.109375 45.234375 -13.859375 C 44.503906 -11.617188 43.46875 -9.59375 42.125 -7.78125 C 40.789062 -5.96875 39.207031 -4.414062 37.375 -3.125 C 35.539062 -1.832031 33.523438 -0.84375 31.328125 -0.15625 C 29.128906 0.53125 26.800781 0.875 24.34375 0.875 Z M 24.34375 -4.3125 C 26.632812 -4.3125 28.78125 -4.710938 30.78125 -5.515625 C 32.78125 -6.328125 34.539062 -7.476562 36.0625 -8.96875 C 37.582031 -10.46875 38.769531 -12.242188 39.625 -14.296875 C 40.488281 -16.347656 40.921875 -18.617188 40.921875 -21.109375 C 40.921875 -23.597656 40.488281 -25.867188 39.625 -27.921875 C 38.769531 -29.972656 37.582031 -31.742188 36.0625 -33.234375 C 34.539062 -34.734375 32.78125 -35.882812 30.78125 -36.6875 C 28.78125 -37.488281 26.632812 -37.890625 24.34375 -37.890625 C 22.050781 -37.890625 19.898438 -37.488281 17.890625 -36.6875 C 15.890625 -35.882812 14.128906 -34.734375 12.609375 -33.234375 C 11.085938 -31.742188 9.898438 -29.972656 9.046875 -27.921875 C 8.203125 -25.867188 7.78125 -23.597656 7.78125 -21.109375 C 7.78125 -18.628906 8.207031 -16.363281 9.0625 -14.3125 C 9.925781 -12.257812 11.117188 -10.488281 12.640625 -9 C 14.160156 -7.507812 15.914062 -6.351562 17.90625 -5.53125 C 19.90625 -4.71875 22.050781 -4.3125 24.34375 -4.3125 Z M 24.34375 -4.3125 "/></g></g></g><g fill="#ffffff" fill-opacity="1"><g transform="translate(516.241547, 58.057239)"><g><path d="M 8.4375 0 L 5.359375 0 C 4.609375 0 4.234375 -0.375 4.234375 -1.125 L 4.234375 -41.25 C 4.234375 -41.945312 4.367188 -42.457031 4.640625 -42.78125 C 4.921875 -43.113281 5.273438 -43.242188 5.703125 -43.171875 C 6.128906 -43.097656 6.554688 -42.796875 6.984375 -42.265625 L 31.359375 -11.625 L 31.359375 -41.078125 C 31.359375 -41.835938 31.734375 -42.21875 32.484375 -42.21875 L 35.5625 -42.21875 C 36.3125 -42.21875 36.6875 -41.835938 36.6875 -41.078125 L 36.6875 -0.96875 C 36.6875 -0.28125 36.539062 0.222656 36.25 0.546875 C 35.96875 0.878906 35.613281 1.003906 35.1875 0.921875 C 34.757812 0.835938 34.328125 0.53125 33.890625 0 L 9.53125 -30.8125 L 9.53125 -1.125 C 9.53125 -0.375 9.164062 0 8.4375 0 Z M 8.4375 0 "/></g></g></g><g fill="#ffffff" fill-opacity="1"><g transform="translate(557.193082, 58.057239)"><g><path d="M 8.4375 0 L 5.359375 0 C 4.609375 0 4.234375 -0.375 4.234375 -1.125 L 4.234375 -41.25 C 4.234375 -41.945312 4.367188 -42.457031 4.640625 -42.78125 C 4.921875 -43.113281 5.273438 -43.242188 5.703125 -43.171875 C 6.128906 -43.097656 6.554688 -42.796875 6.984375 -42.265625 L 31.359375 -11.625 L 31.359375 -41.078125 C 31.359375 -41.835938 31.734375 -42.21875 32.484375 -42.21875 L 35.5625 -42.21875 C 36.3125 -42.21875 36.6875 -41.835938 36.6875 -41.078125 L 36.6875 -0.96875 C 36.6875 -0.28125 36.539062 0.222656 36.25 0.546875 C 35.96875 0.878906 35.613281 1.003906 35.1875 0.921875 C 34.757812 0.835938 34.328125 0.53125 33.890625 0 L 9.53125 -30.8125 L 9.53125 -1.125 C 9.53125 -0.375 9.164062 0 8.4375 0 Z M 8.4375 0 "/></g></g></g><g fill="#ffffff" fill-opacity="1"><g transform="translate(598.144616, 58.057239)"><g><path d="M 25.71875 0 L 5.296875 0 C 4.546875 0 4.171875 -0.375 4.171875 -1.125 L 4.171875 -41.078125 C 4.171875 -41.835938 4.546875 -42.21875 5.296875 -42.21875 L 25.71875 -42.21875 C 26.46875 -42.21875 26.84375 -41.835938 26.84375 -41.078125 L 26.84375 -38.3125 C 26.84375 -37.5625 26.46875 -37.1875 25.71875 -37.1875 L 9.5625 -37.1875 L 9.5625 -18.40625 L 23.53125 -18.40625 C 24.28125 -18.40625 24.65625 -18.03125 24.65625 -17.28125 L 24.65625 -14.625 C 24.65625 -13.875 24.28125 -13.5 23.53125 -13.5 L 9.5625 -13.5 L 9.5625 -5.03125 L 25.71875 -5.03125 C 26.46875 -5.03125 26.84375 -4.65625 26.84375 -3.90625 L 26.84375 -1.125 C 26.84375 -0.375 26.46875 0 25.71875 0 Z M 25.71875 0 "/></g></g></g><g fill="#ffffff" fill-opacity="1"><g transform="translate(626.956122, 58.057239)"><g><path d="M 24.296875 0.875 C 21.878906 0.875 19.570312 0.53125 17.375 -0.15625 C 15.1875 -0.84375 13.179688 -1.828125 11.359375 -3.109375 C 9.535156 -4.390625 7.953125 -5.929688 6.609375 -7.734375 C 5.265625 -9.535156 4.222656 -11.5625 3.484375 -13.8125 C 2.753906 -16.070312 2.390625 -18.503906 2.390625 -21.109375 C 2.390625 -23.703125 2.757812 -26.125 3.5 -28.375 C 4.238281 -30.632812 5.273438 -32.664062 6.609375 -34.46875 C 7.953125 -36.28125 9.535156 -37.828125 11.359375 -39.109375 C 13.179688 -40.390625 15.179688 -41.375 17.359375 -42.0625 C 19.546875 -42.75 21.835938 -43.09375 24.234375 -43.09375 C 27.296875 -43.09375 30.132812 -42.554688 32.75 -41.484375 C 35.375 -40.410156 37.664062 -38.929688 39.625 -37.046875 C 39.90625 -36.785156 40.03125 -36.519531 40 -36.25 C 39.96875 -35.988281 39.828125 -35.734375 39.578125 -35.484375 L 37.125 -33.53125 C 36.613281 -33.050781 36.09375 -33.054688 35.5625 -33.546875 C 34.0625 -34.910156 32.351562 -35.972656 30.4375 -36.734375 C 28.519531 -37.503906 26.453125 -37.890625 24.234375 -37.890625 C 21.984375 -37.890625 19.863281 -37.488281 17.875 -36.6875 C 15.882812 -35.882812 14.132812 -34.738281 12.625 -33.25 C 11.113281 -31.769531 9.925781 -30.003906 9.0625 -27.953125 C 8.207031 -25.898438 7.78125 -23.632812 7.78125 -21.15625 C 7.78125 -18.664062 8.207031 -16.390625 9.0625 -14.328125 C 9.925781 -12.265625 11.117188 -10.488281 12.640625 -9 C 14.160156 -7.507812 15.914062 -6.351562 17.90625 -5.53125 C 19.90625 -4.71875 22.050781 -4.3125 24.34375 -4.3125 C 26.507812 -4.3125 28.550781 -4.703125 30.46875 -5.484375 C 32.394531 -6.265625 34.09375 -7.320312 35.5625 -8.65625 C 36.070312 -9.132812 36.59375 -9.144531 37.125 -8.6875 L 39.578125 -6.78125 C 40.179688 -6.25 40.234375 -5.738281 39.734375 -5.25 C 37.796875 -3.363281 35.5 -1.867188 32.84375 -0.765625 C 30.195312 0.328125 27.347656 0.875 24.296875 0.875 Z M 24.296875 0.875 "/></g></g></g><g fill="#ffffff" fill-opacity="1"><g transform="translate(668.704165, 58.057239)"><g><path d="M 15.640625 0 L 12.46875 0 C 11.71875 0 11.34375 -0.375 11.34375 -1.125 L 11.34375 -37.1875 L 1.78125 -37.1875 C 1.03125 -37.1875 0.65625 -37.5625 0.65625 -38.3125 L 0.65625 -41.078125 C 0.65625 -41.835938 1.03125 -42.21875 1.78125 -42.21875 L 26.328125 -42.21875 C 27.078125 -42.21875 27.453125 -41.835938 27.453125 -41.078125 L 27.453125 -38.3125 C 27.453125 -37.5625 27.078125 -37.1875 26.328125 -37.1875 L 16.765625 -37.1875 L 16.765625 -1.125 C 16.765625 -0.375 16.390625 0 15.640625 0 Z M 15.640625 0 "/></g></g></g><g fill="#ffffff" fill-opacity="1"><g transform="translate(694.685685, 58.057239)"><g><path d="M 9.53125 0.578125 C 8.832031 0.578125 8.195312 0.40625 7.625 0.0625 C 7.050781 -0.269531 6.59375 -0.722656 6.25 -1.296875 C 5.914062 -1.878906 5.75 -2.53125 5.75 -3.25 C 5.75 -3.957031 5.914062 -4.597656 6.25 -5.171875 C 6.59375 -5.753906 7.050781 -6.21875 7.625 -6.5625 C 8.195312 -6.914062 8.832031 -7.09375 9.53125 -7.09375 C 10.25 -7.09375 10.898438 -6.914062 11.484375 -6.5625 C 12.066406 -6.21875 12.53125 -5.753906 12.875 -5.171875 C 13.226562 -4.597656 13.40625 -3.957031 13.40625 -3.25 C 13.40625 -2.53125 13.226562 -1.878906 12.875 -1.296875 C 12.519531 -0.722656 12.046875 -0.269531 11.453125 0.0625 C 10.867188 0.40625 10.226562 0.578125 9.53125 0.578125 Z M 9.53125 0.578125 "/></g></g></g></g></g></svg>